<?xml version="1.0" encoding="UTF-8"?>
<svg xmlns="http://www.w3.org/2000/svg" id="_圖層_1" viewBox="0 0 625.09 108.85">
  <!-- Generator: Adobe Illustrator 29.5.0, SVG Export Plug-In . SVG Version: 2.1.0 Build 137)  -->
  <polygon points="177.37 56.62 177.37 1.92 157.43 1.92 149.65 34.61 142.03 1.92 121.93 1.92 121.93 56.62 134.58 56.62 134.58 17.13 143.66 56.62 154.85 56.64 164.73 16.81 164.73 56.62 177.37 56.62" fill="#bb1c21"></polygon>
  <polygon points="260.69 1.92 246.1 1.92 246.1 31.37 227.78 1.92 213.36 1.92 213.36 56.62 227.95 56.62 227.95 27.17 246.26 56.62 260.69 56.62 260.69 1.92" fill="#bb1c21"></polygon>
  <path d="M500.76,1.92h-27.4v54.7h26.42c1.32,0,6.4-1.64,7.73-2.31,14.11-7.07,14.41-35.17,5.24-45.92-2.46-2.88-8.17-6.47-12-6.47ZM502.37,38.16c-2.02,6.64-7.77,5.43-13.45,5.84V14.54c4.05.16,9.54-.17,12.14,3.58,2.72,3.92,2.67,15.56,1.31,20.04Z" fill="#bb1c21"></path>
  <path d="M384.14,1.04c-28.08,2.85-28.73,51.39-1.94,56.13,17.5,3.1,30.59-5.66,31.83-23.7,1.42-20.53-7.77-34.68-29.89-32.43ZM398.47,33.47c-.36,4.57-2.35,10.42-7.64,11.14-7.26.99-10.98-2.73-12.08-9.57-1.01-6.25-.99-19.67,7.32-21.07,12.38-2.09,13.11,10.57,12.4,19.5Z" fill="#bb1c21"></path>
  <polygon points="312.56 44 286.3 44 286.3 33.32 309.97 33.32 309.97 22.31 286.3 22.31 286.3 13.57 311.91 13.57 311.91 1.92 270.74 1.92 270.74 56.62 312.56 56.62 312.56 44" fill="#bb1c21"></polygon>
  <path d="M433,2.24l-18.31,54.38h15.89l2.31-9.02,16.83.1,2.58,8.91h16.21L449.55,1.9l-16.55.34ZM436.08,35.58l5.35-18.78,5.35,18.78h-10.7Z" fill="#bb1c21"></path>
  <polygon points="335.9 1.92 320.34 1.92 320.34 56.62 359.57 56.62 359.57 43.35 335.9 43.35 335.9 1.92" fill="#bb1c21"></polygon>
  <rect x="187.42" y="1.92" width="15.56" height="54.7" fill="#bb1c21"></rect>
  <path d="M616.35,38.32c-1.52-2.35-3.66-4.95-6.49-5.66-.28-.38,2.7-1.32,3.14-1.55,12.61-6.57,10.62-27.67-5.25-29.19h-31.29v54.7h15.56v-22.33c2.14.19,4.31.37,5.65,2.29l10.07,20.05h17.34c-3.17-5.72-5.22-12.87-8.74-18.3ZM602.34,23.06c-.64.22-3.77.87-4.32.87h-6v-11c3.15.07,6.71-.12,9.81.4,4.63.77,4.88,8.21.5,9.73Z" fill="#bb1c21"></path>
  <polygon points="542.1 33.32 565.76 33.32 565.76 22.31 542.1 22.31 542.1 13.57 567.71 13.57 567.71 1.92 526.53 1.92 526.53 56.62 568.36 56.62 568.36 44 542.1 44 542.1 33.32" fill="#bb1c21"></polygon>
  <path d="M281.76,102.58l-4.21,1.29c.06-.72-.26-1.4-.32-2.11-.81-9.63-.1-22.94.65-32.68.08-.99.8-3.85.67-4.49-.08-.42-1.55-.66-1.98-.4-.94,1.05-7.65,3.57-7.95,4.06-.38.64-.07,1.85-.15,2.59,1.96-.36,3.47-1.69,3.89,1.13.48,3.22-.35,7.5,0,10.84-8.32-2.57-18.35,3.05-18.82,12.12-.37,7.22,4.42,12.33,11.81,11.47,2.22-.26,4.26-1.58,6.36-2.23.26,1.37,0,3.79,1.78,3.91.75.05,7.84-2.48,8.12-2.94.38-.63.07-1.85.15-2.59ZM271.65,100.74c-1.87,2.07-5.15,2.52-7.72,1.68-7.17-2.35-7.87-15.96.58-16.6,1.41-.11,7.24.88,7.53,2.36l-.39,12.56Z" fill="#bb1c21"></path>
  <path d="M133.92,81.71c-4.08-2.29-5.31-6.56-2.26-10.36,3.02-3.77,12.68-2.15,14.6,2.58.29.7.54,2.96.65,3.07.16.15,1.79-.07,2.26.02.31-1.68-.36-3.45-.35-5.02,0-1.23.55-3.01.61-4.29.08-1.68-2.78-.15-3.32-.12-1.12.05-3.49-.81-4.89-.92-8.44-.68-17.68,2.64-16.34,12.75,1.48,11.11,20.61,7.73,20.37,18.75-.18,8.37-11.49,6.28-16.41,3.51-3.49-1.97-2.94-5.85-3.7-6.5-.36-.31-2.01.17-2.56.29.9,3.16,1.75,6.62,1.93,9.91.02.45-.18.71-.3,1.09.67-.28,2.04.38,2.41.29.41-.1.38-.9.71-.96.55-.09,4.33.91,5.47.99,6.81.51,15.79-.41,17.57-8.34,2.56-11.41-9.54-12.86-16.45-16.74Z" fill="#bb1c21"></path>
  <path d="M233.45,102.58l-3.56.65.17-20.71c-1.21.69-8.68,1.64-9.1,2.24-.21.3-.22,2.2-.14,2.28.32.31,3.21-.33,3.74,1.28.94,2.84-.38,8.85-.34,12-2.08,1.4-7.06,3.38-9.07,1.28-1.6-1.68-1.24-8.99-1.16-11.49.05-1.53,1.05-6.72.18-7.6-.49-.5-.9-.33-1.47-.17-.81.23-6.78,3.37-7.15,3.88-.45.62-.5,2.32.19,2.45.36.07,2.34-1.12,3.07-.97v13.43c0,.12.61,1.91.73,2.18,1.33,2.9,4.37,3.9,7.39,3.33,2.33-.43,5.56-2.85,7.28-3.09.71-.1.4.1.48.49.24,1.23.35,2.51.66,3.72.98-.64,8.01-2.37,8.12-2.79.16-.58-.15-1.7-.02-2.39Z" fill="#bb1c21"></path>
  <path d="M346.62,81.89c-6.98,0-12.63,5.65-12.63,12.61s5.65,12.61,12.63,12.61,12.63-5.65,12.63-12.61-5.65-12.61-12.63-12.61ZM349.65,103.52c-8.33,3.89-13.43-11.77-8.12-17,3.78-3.73,8.93-.76,10.96,3.23,2.12,4.17,1.99,11.52-2.85,13.78Z" fill="#bb1c21"></path>
  <path d="M393.72,93.57c-1.76-1.29-5.96-2.66-7.09-3.93-.78-.88-.66-2.67.01-3.57,1.74-2.3,5.26.14,6.65,1.78.3.35.34,1.1.63,1.31.56.39,1.9.05,2.61.15l-1.31-6.45c-4.83-.66-10.72-1.07-13.42,3.89-4.4,8.08,9.06,8.66,10.29,13.31,1.43,5.42-5.12,4.74-7.9,2.06-1.85-1.79-1.03-4.17-4.53-3.41.73,2.38,1.37,4.63.65,7.12,4.87,1.22,9.09,1.79,13.62-.8,5-2.86,4.01-8.34-.22-11.44Z" fill="#bb1c21"></path>
  <path d="M187.59,101.3c-1.36-.09-5,2.96-7.71,1.53-1.8-.94-1.17-4.62-1.19-6.22-.04-3.62,0-7.24-.01-10.86h8.59c.59,0,.87-2.95-.04-3.21-.22-.06-3.59.35-4.51.32-1.25-.04-2.45-.5-3.71-.34l.32-6.15c-.54-.12-.66.17-.96.49-1.65,1.69-3.07,3.6-4.86,5.18-1.36,1.2-3.52,1.61-3.57,3.72.6-.01,3.1-.13,3.25.54.77,8.69-4.13,25.4,11,19.36.69-.27,3.2-1.5,3.57-1.94.51-.62.48-2.37-.15-2.41Z" fill="#bb1c21"></path>
  <path d="M309.36,103.02c-.78-6.95-.12-13.91.6-20.83-2.02-.36-3.29,1.39-4.97,2.32-1,.55-4.15,1.6-4.38,2.43-.62,2.15,2.81,1.23,3.15,2.25-.13,1.92.45,14-.33,14.64-.98.79-3.71-1.02-2.87,2.64h10.86c.47,0,2.02-.55,2.76-.49-.33-3.51-2.9-1.64-4.82-2.95Z" fill="#bb1c21"></path>
  <path d="M306.96,68.02c-2.59.59-2.59,4.77,0,5.36,5.4,1.23,5.41-6.59,0-5.36Z" fill="#bb1c21"></path>
  <path d="M106.71,34.76c-.75-5.35.35-11.18,0-16.83-.08-1.24-.69-2.4-.68-3.55,0-1.01.69-2.02.65-2.6-.03-.47-.61-.79-.57-1.23.03-.38.57-.92.62-1.68.05-.77-.33-1.43-.32-1.97.06-2.25,1.07-6.53-2.46-6.6-1.58-.03-3.95.68-5.2.66-.81-.01-1.38-.59-2.25-.67-4.92-.46-14.05.14-19.12.33-.21,0-.16.64-.38.67-.68.12-1.78-.69-2.56-.81-3.96-.62-12.46-.26-16.87-.19-2.7.04-6.67,1.5-8.72,1.3-.53-.05-1-.61-1.55-.75C43.77-.05,29.88-.22,26.11.28c-.61.08-.42.62-.69.68-.91.2-2.27-.49-3.15-.32-.52.1-.86.58-1.32.61-.67.05-1.76-.67-2.27-.63-.19.01-.18.67-.35.68-.37.02-1.92-.88-2.91-.99-2.92-.32-5.94.3-8.76.35-1.01.02-1.97-.45-2.91-.38-1.03.08-1.79,1.18-3.01,1.06L.03,3.22v16.83h.32c.03,2.91-.28,6.41,0,9.22.13,1.26,1.24,3.53,1.21,4.16-.06,1.47-.6,3.97-.77,5.61-.1,1.03.47,2.38-.77,3.34v11.65h.32c.04,1.87-.11,3.8,0,5.66.16,2.58,1.61,5.04-.33,7.61v23.31c-.04,2.66-.05,5.29,0,7.88v7.33h.32c.24,3.17,3.35,3.04,5.87,2.72.67-.08,1.47-.7,2.4-.72,1.26-.02,2.55.79,3.88.92,3.3.33,5.98-.54,8.77-.69,2.19-.11,5.45.93,8.44.68,7.85-.65,16.04-.62,23.98-.66,8.18-.04,16.51,1.11,24.65.66,6.37-.35,9.73-1.73,16.48-.95,3.58.41,3.16.13,6.52-.3,1.5-.19,3.39,1.21,4.69.09.8-.69.46-2.18.5-3.22.08-2.48.57-8.31-.19-10.6-.63-1.91-.34-1.76-.06-4.07.68-5.53.2-11.75.15-17.7-.02-2.47.56-5.93.27-8.43-.4-3.47-.18-5.78-.21-9.32-.02-2.74.36-6.56.21-9.11-.05-.88-.64-1.91-.62-2.62.09-2.29,1.03-4.95.63-7.77ZM50.67,98.86c-.01.47.28.95.24,1.57-.11,1.5-.66,3.2-.63,4.74l-45.69-.84c-1.89-.57-.65-2.44-.64-3.86.01-2.78-.52-5.6-.34-8.41.05-.71.21-1.41.33-2.11,1.27.42,4.52.65,5.67.25.19-.07.18-.53.57-.68,1.91-.73,2.49.85,3.98-2.15,1.91-3.86.43-8.56.44-12.48,0-.94.3-1.95.34-3.23.36-12.75.34-25.4.36-38.19,0-4.38-.95-13.91.19-17.59.81-2.6,1.73-1.05,3.51-2.32-.05,1.99.68,4.07.73,6.01.03,1.07-.48,2.23-.5,3.24-.03,1.24.1,2.58.1,3.87,0,4.16.08,8.32.34,12.49.12,1.9-.4,2.08-.44,3.69-.08,3.26.3,7,.28,10.36-.03,4.36-.26,8.54-.03,12.94.11,2.12.27,4.97.3,7.73,0,.76-.43,1.61-.32,2.64.06.55.96.74,1,1.44l-.97-.32c.59,3.82-.3,7.62-.29,11.45,0,1.86.73,5.28.47,7.01-.04.26-.2.78-.34.96-.55.65-4.64.23-5.84.32-.83.06-1.73.66-2.28.63-.46-.03-.87-.57-1.6-.64-.81-.08-4.26-.12-4.83.06-.83.27-.72,3.62-.21,4.01.7.53,6.01.5,7.21.41,10.78-.75,21.9.04,32.84-.29.91-.03,4.03.81,4.74-.17.48-.66.66-3.65-.59-3.95l-14.33-.1c-.1-.58-.33-1.15-.35-1.74-.14-3.92.38-8.51.33-12.64-.07-6.62-.73-13.52-.2-20.07.4-4.92.04-9.94-.14-14.87-.32-8.54,1.04-17.98.06-26.86.43-2.07-.12-4.41.26-6.48.3-1.62,3.08-.35,4.21-.81.05,1.45-.05,2.92-.01,4.38.27,10.46-.03,21.07,0,31.72,0,1.76-.22,2.68.15,4.34.45,2.04-.04,2.45-.15,4.7-.1,1.95.24,3.96.21,5.78-.09,5.79-.97,14.32.06,19.83,1.19,6.4,4.51,5.76,10.22,5.64,1.31-2.03,1.16-3.97-1.56-4.23-1.92-.18-3.68,1.03-4.78-1.37-.76-1.66-.15-2.59-.26-3.92-1.38-16.74.41-34.54.03-51.5.33-3.02-.72-6.77-.86-9.38-.02-.47.82-5.11.99-5.34.29-.39,1.45-.55,2.01-.91,2.04-1.31,2.9-2.59,4.31-4.45.23-.3.81-.39.9-.54.72-1.2-.89-3.64-2.35-3.52-.7.06-1.9,2.26-2.65,2.89-1.96,1.64-4.6,1.88-7.08,2.02-4.27.24-8.8-.11-12.95-.05-5.33.08-12.22-.99-13.71,5.76-.52,2.36-.44,6.47-.43,8.98.07,18.54.71,37.12-.11,55.67-.05,1.14.38,2.72.15,3.9-.14.72-.65.6-.89.91-.19.24.05.79-.28.88-1.04.29-3.88-.53-4.7-.17-.75.34-.31,1.37-.95,1.44.26-2.18-.21-4.01-.57-6.08-.13-.74.68-.95-.41-1.2,1.29-.3.31-1.21.39-2.19.28-3.15.31-4.95.32-8.16,0-1.74.55-4.54.51-5.9-.02-.53-.57-.73-.58-1.22,0-.22.65-.12.67-.34.04-.48-.56-2.09-.6-2.9-.33-7.07,1.32-16.64-.41-23.55-.07-.3-.64-.15-.66-.72-.05-1.29.78-3.02.93-4.3.4-3.39.68-10.79.43-14.17-.07-.95-1.01-3.02-1.03-3.89-.01-.57.58-.39.67-.7.52-1.83-.02-5.15.26-7.12.88-1.82,2.53-1.02,3.84-1.06,3.24-.11,6.35-.33,9.45-.58,2.35-.2,3.21.03,5.28.42,3.36.63,4.14-.36,6.64-.52,1.5-.09,3.76.78,5.52.6,2.36-.24,4.39-1.69,7.06-.83.43.14.61.66,1.05.75,1.55.33,6.7-.31,7.54.55.31.32.58,2.19.6,2.73.43,12.09-.23,25.01-.22,37.17,0,18.21.57,36.47.09,54.7ZM22.4,37.39c.03-.55.56-1.05.64-1.66.51-4.34.08-8.94.06-13.3l-.04-8.21c2.52.08,4.97-.43,7.46,0,.25,15.98-.24,32.05-.2,48.01.03,10.15-.15,21,.19,31.79.03.84.78,2.74.03,3.24-.82-.17-2.34.67-2.77.67-.35,0-.82-.47-1.33-.53-.75-.08-1.4.28-2.1.18-2.03-.29-.91-1.54-.93-2.93-.07-7.45-.29-14.78-.27-22.25,0-3.77.08-7.64.09-11.07,0-1.6.47-4.09.45-5.2-.01-.57-.59-1.26-.65-2.25-.17-3.18.93-8.9,0-11.89-.08-.26-.55-.25-.61-.47-.33-1.16.54-1.04.62-1.29.24-.81-.67-2.12-.63-2.84ZM72.51,6.58c3.7-.35,7.86.43,11.64.21,1.27-.23.3-1.89,2.6-1.99,2.75-.12,2.05,1.4,2.9,1.86l12.78.17c.97.6.18,2.99.71,3.83-1.01,1.1-12.54-.4-15.01.4-.46.15-6.62,5.31-7.43,6.1-.74.72-2.36,2.33-1.1,3.25.53.39,5.41.6,6.51.65.75.03,1.46-.38,2.25-.36,1.01.02,2.08.6,3.29.53,1.22-.07,3.47-.41,2.7-1.93l-4.5-3.62c-1.51-1.65,0-3.88,2.06-3.71,3.79,2.61,7.11,5.93,11.03,8.43.59.6.34,3.38-.13,3.72-.97.71-4.15.38-5.35.46-6.43.46-16.01.88-22.4.34-5.76-.49-6.84-2.32-2.62-6.36,1.01-.97,2.81-2.02,3.8-2.81.8-.63,5.47-4.13,5.47-4.6.02-1.13-5.6-.16-6.32-.16-1.3,0-2.99-.62-4.46-.34-1.87-1.94-1.26-3.8,1.56-4.07ZM98.84,30.8c-.77-.77-5.09-.2-6.04-.77-.38-.23-.53-2.34-.21-2.87.81-1.37,7.12-.67,8.58.5,2.56,2.05,2.45,11.36.34,13.59-1.88,1.99-5.74-.95-5.87,3.23-.02.59.04,2.6.11,3.16.4,3.51,6.17.73,7.22,2.5.37.62.17,2.12-.32,2.6-.48.48-4.87.43-5.84.31-2.45-.28-3.44-1.77-3.69-4.09-.24-2.28-.61-6.81.12-8.86,1.22-3.41,4.41-.98,5.64-2.78.54-.78.58-5.9-.05-6.53ZM91.33,39.68c-.13.23-2.12,1.87-2.38,1.98-1.12.51-3.55.16-3.92,1.26-.19.56.18,5.23.57,5.8,1.18,1.67,4.35-.14,5.79,1.19.28.26.18,3.04.06,3.16-.46.46-5.63.16-6.58-.07-3.96-.93-3.76-10.52-2.41-13.28,1.42-2.92,4.46-.35,5.77-2.66.2-.36.63-5.27.53-5.53-.03-.08-1.34-1.09-1.43-1.11-1.29-.29-4.24.43-5.15-.3-.82-.66-.94-2.81-.03-3.5.57-.43,6.21-.05,7.17.25,2.44.77,3.01,5.37,2.96,7.53,0,.21-.31.47-.33.69-.13,1.66.4,2.77-.62,4.59ZM53.85,4.85c.07-.09,1.86-.95,2.13-.99,2.2-.31,2.07,1.15,2.29,2.85.26,1.99.27,7.8.13,9.92-.03.43-.19,1.82-.41,2.04-.38.38-2.04.19-2.51-.1-1.23-.77-.92-5.64-.99-7.11-.07-1.59.12-3.16,0-4.53-.06-.68-.71-2-.65-2.09ZM54.48,53.19c-.62-2.08.06-4.97.03-7.07-.1-8.93-2.19-20.28,4.88-26.84,1.48-1.37,3.06-1.72,3.74-3.71.53-1.56.64-4.57.75-6.37.18-2.88-1.25-6.24,3.27-4.47.92,3.66.85,7.16-.19,10.79-.26.92-1.15,1.7-.81,2.91l-.97-.32c.64,2.97-.34,1.6-.97,2.27-.55.58.74.48.65,1.29.47.12.92,0,1.42.35.6.41.55.89.85,1.36.16.24.62.2.6.37-.03.43-.33.91-.3,1.62.25,6.46,0,13.17,0,19.75,0,1.97,1.22,8.25-1.75,8.28-3.03.03-1.74-4.06-1.77-5.69-.11-6.31.03-12.47,0-18.77,0-.97-.6-1.77-.61-2.32,0-.45.57-.87.61-1.56.04-.67-.45-1.47-.38-1.9.05-.35,1.18-.24,1.32-1.5-1.89-.48-1.74-.27-3.05,1.02-.47.47-1.03.98-1.51,1.48-2.83,2.92-2.2,9.77-2.25,13.54-.04,3.05.3,6.39.26,9.36-.02,1.43-.03,4.23-.27,5.5-.17.9-1.57,1.6-2.37,1.47-.19-.03-.2-.44-.35-.53-.29-.18-.76-.01-.86-.32ZM85.94,82.84c-1.53,0-3.1-.6-4.55.19-.36,2.25.2,4.53.18,6.78,0,.31-.33.62-.33.93-.02,2.76.06,5.47.18,8.26,2,.05,4-.01,6.01.01,2.04.03,4.28.24,6.13.17,1.1-.04,3.91-.91,4.35.71.05.19-.2,2.57-.29,2.67-.29.28-3.33.04-3.97.09-7.17.46-15.44.35-23.1.27-2.36-.03-4.2.11-6.57-.25-.7-.11-.94.45-1.71-.22-.96-.83-.59-1.97-.63-3.11l15.89-.32-.14-15.88c-.92-.77-4.06-.66-4.58.35-.26.5.25,1.92.21,2.75-.14,2.9-.61,8.55-4.09,9.21-.93.18-5.87.25-6.72-.06-1.5-.56-.79-3.26.08-3.67.36-.17.74.36,1.12.36.4,0,.83-.21,1.29-.19,1.54.08,1.68.96,3.1-.48,1.75-1.78.89-5.42,1.28-7.72-.17-.63-2.91-1.05-3.76-1.45-.46-.21-2.07-1.41-2.27-1.77-.4-.71-1.28-4.67-1.38-5.61-.15-1.42.26-5.73.68-7.03.12-.36,1.53-1.31,1.9-1.66.27-.26.21-.84.41-1.05,1-1.05,2.66-.72,3.59-.85,6.75-.94,13.92-.54,20.8-.52,1.56,0,7.67-.88,8.43.62.31.62.16,2.67-.24,3.17-.33.42-2.51.01-3.32.09-.4.04-.78.52-.99.52-.43,0-.95-1.34-1.29.12-.22-1.19-2.28-.34-3.24-.4-1.95-.12-3.58,0-5.18-.05-.57-.02-1.16-.74-1.62-.72-1.86.1-3.88.53-6.18.54-2.18,0-6.07-.36-8.05.07-1.47.33-2.25,3.06-1.31,3.4.17.06,3.01.08,3.51.08,4.32.03,8.62-.16,12.98-.36,2.57-.12,6.09,1.26,8.11-.55,1.31.75,6.12.7,6.78,1.19.46.34.59,2.53-.15,3.09-1.1.83-1.88.19-2.74.25-8.18.59-16.28,0-24.32.25-.85.03-4.62-.28-4.68.48-.01.12.8,2.16.96,2.27.87.6,3.57.41,3.57,1.46h.32c-.12-1.11.48-.38,1.07-.45,3.92-.41,8.32-.4,12.32-.39,1.78,0,12.89-.12,13.46.24.77.48.58,3.32-.01,3.77-1.46,1.09-6.61-.65-7.33.93-.6,1.32-.22,6.44.73,7.56,1.48,1.76,5.72.22,6.6.72.06.04.99.95.99,1.02,0,.27-.4,2.08-.57,2.31-.87,1.16-2.44.43-3.44.42-.99,0-2.44.24-3.24.24-1.19,0-3.82-1.81-4.24-3.1-.18-.55-.91-4.47-.95-5.03-.06-.72.44-4.43.16-4.69ZM103.73,102.05c-.3.88-3.18,1.58-3.49-.62-.34-2.41.04-5.06-.01-7.41-.12-5.32-.37-10.82-.36-16.2,0-3.78.94-9.72.31-13.24-1.11-6.19-7.22-4.15-11.8-4.25-1.4-.03-2.83-.3-4.21-.4-.46-.03-.99.33-1.59.26-1.71-.2-1.72-1.43-2.01-1.65-.48-.36-2.19-.46-2.72-.13-.55.34-.59,1.54-1.79,1.77-3.7.7-9.54-.67-13.27.02-3.11.58-3.67,4.01-3.75,6.61-.24,7.37.24,14.88.21,22.29-.02,4.35-.48,8.6-.23,12.95-.35.98-3.15.94-3.5.5-.16-.19-.37-4.34-.39-4.98-.17-7.78.13-15.58.23-23.25.05-4.02-.8-9.8.54-13.55.85-2.38,1.77-2.83,3.88-3.83.21-.1.18-.54.48-.62,4.04-1.16,10.2.4,14.17-.35.88-.17,1.98-1.8,3.09-2.09.14-.77-.35-.4-.82-.47-2.16-.3-3.96-.11-5.34-2.12-1.38-2-1.32-8.81-.39-11.07,1.5-3.62,4.11-.99,5.91-2.84,1.01-1.03.97-6.17-.33-6.82-1.43-.71-6.83,1.13-6.73-1.88.07-2,1.6-2.4,3.32-2.41,2.07-.02,5.71.58,6.92,2.41,1.44,2.2,1.53,10.25-.05,12.31-1.35,1.77-5.15.44-5.9,1.71-.35.6-.3,5.62.24,6.08,1.13.95,5.89.27,6.56,1.38.14.23.46,1.83.42,2.06-.16.87-2.22.77-1.55,1.49.09.1,1.96.58,2.51.88.62.35.77,1.18,1.89,1.37,4.93.82,10.65-1.19,15.55.83,1.7.7,3.16,2.52,3.64,4.29.98,3.62.37,8.68.39,12.53.03,6.05-.06,11.92.57,17.85.13,1.2-.71,2.9-.77,3.88-.11,1.65.69,5.19.18,6.71Z" fill="#bb1c21"></path>
</svg>
